<svg width="680" height="300" viewBox="0 0 680 300" xmlns="http://www.w3.org/2000/svg">
  <rect x="0" y="0" width="680" height="300" fill="white"/>
  <style>
    .brand{font-family:Arial,sans-serif;font-weight:900;font-size:38px;fill:#1a1a1a;letter-spacing:2px}
    .check{font-family:Arial,sans-serif;font-size:12px;fill:#444}
    .starG{fill:#FFD700;stroke:#B8860B;stroke-width:1px}
  </style>
  <g transform="translate(120,40)">
    <rect x="0" y="50" width="18" height="70" fill="#2c2c2c"/>
    <rect x="0" y="44" width="18" height="10" fill="#2c2c2c"/>
    <rect x="2" y="56" width="14" height="3" fill="white" opacity="0.3"/>
    <rect x="2" y="66" width="14" height="3" fill="white" opacity="0.3"/>
    <rect x="2" y="76" width="14" height="3" fill="white" opacity="0.3"/>
    <rect x="2" y="86" width="14" height="3" fill="white" opacity="0.3"/>
    <rect x="2" y="96" width="14" height="3" fill="white" opacity="0.3"/>
    <rect x="22" y="28" width="22" height="92" fill="#2c2c2c"/>
    <rect x="22" y="20" width="22" height="12" fill="#2c2c2c"/>
    <rect x="24" y="34" width="18" height="3" fill="white" opacity="0.3"/>
    <rect x="24" y="44" width="18" height="3" fill="white" opacity="0.3"/>
    <rect x="24" y="54" width="18" height="3" fill="white" opacity="0.3"/>
    <rect x="24" y="64" width="18" height="3" fill="white" opacity="0.3"/>
    <rect x="24" y="74" width="18" height="3" fill="white" opacity="0.3"/>
    <rect x="24" y="84" width="18" height="3" fill="white" opacity="0.3"/>
    <rect x="24" y="94" width="18" height="3" fill="white" opacity="0.3"/>
    <rect x="48" y="40" width="18" height="80" fill="#2c2c2c"/>
    <rect x="48" y="33" width="18" height="10" fill="#2c2c2c"/>
    <rect x="50" y="46" width="14" height="3" fill="white" opacity="0.3"/>
    <rect x="50" y="56" width="14" height="3" fill="white" opacity="0.3"/>
    <rect x="50" y="66" width="14" height="3" fill="white" opacity="0.3"/>
    <rect x="50" y="76" width="14" height="3" fill="white" opacity="0.3"/>
    <rect x="50" y="86" width="14" height="3" fill="white" opacity="0.3"/>
    <rect x="-4" y="120" width="74" height="6" fill="#2c2c2c"/>
    <polygon points="33,0 36,10 46,10 38,16 41,26 33,20 25,26 28,16 20,10 30,10" class="starG"/>
  </g>
  <text x="215" y="110" class="brand">STAR-BTP</text>
  <g transform="translate(215,128)">
    <text x="0" y="0" class="check">✓  Gros œuvre</text>
    <text x="0" y="16" class="check">✓  Second œuvre</text>
    <text x="0" y="32" class="check">✓  Lot technique</text>
    <text x="0" y="48" class="check">✓  Assainissement</text>
    <text x="0" y="64" class="check">✓  Terrassement</text>
    <text x="0" y="80" class="check">✓  AEP</text>
  </g>
</svg>
